<svg width="218" height="218" xmlns="http://www.w3.org/2000/svg" xmlns:xlink="http://www.w3.org/1999/xlink" xml:space="preserve" overflow="hidden"><defs><clipPath id="clip0"><rect x="38" y="46" width="218" height="218"/></clipPath><clipPath id="clip1"><rect x="39" y="47" width="216" height="216"/></clipPath><clipPath id="clip2"><rect x="39" y="47" width="216" height="216"/></clipPath><clipPath id="clip3"><rect x="39" y="47" width="216" height="216"/></clipPath></defs><g clip-path="url(#clip0)" transform="translate(-38 -46)"><g clip-path="url(#clip1)"><g clip-path="url(#clip2)"><g clip-path="url(#clip3)"><path d="M109.2 162.875C100.65 166.25 92.775 170.75 85.575 176.375 80.625 180.425 77.475 186.5 77.25 193.025L73.425 226.325C72.75 231.275 75 236.225 79.05 238.925 83.1 241.625 87.375 243.65 91.875 245.45L93.9 245.45 93.9 236.675C90.525 235.325 87.15 233.525 84 231.5 82.65 230.6 81.975 229.025 82.2 227.45L86.25 193.7 86.25 193.25C86.475 189.2 88.275 185.6 91.425 183.125 97.5 177.95 106.275 173.225 118.425 168.725 125.175 172.775 135.525 175.25 147 175.25 158.475 175.25 168.825 172.775 175.575 168.725 187.95 173.225 196.5 177.95 202.575 183.125 205.725 185.6 207.525 189.425 207.75 193.25L211.8 227.225C212.025 228.8 211.35 230.375 210 231.275 206.85 233.3 203.7 235.1 200.1 236.45L200.1 245.225 202.125 245.225C206.625 243.65 210.9 241.4 214.95 238.7 219 235.775 221.25 231.05 220.575 226.1L216.75 193.025C216.525 186.5 213.375 180.425 208.425 176.375 201.225 170.75 193.35 166.025 184.8 162.875 184.8 151.4 185.25 119.9 185.25 107.075 185.25 103.475 184.8 99.875 183.9 96.275 180.975 85.475 173.55 76.475 163.65 71.3 162.75 70.85 161.4 70.85 160.725 71.525L158.7 73.1 156.45 69.95C155.775 68.825 154.65 68.15 153.525 67.925 151.275 67.475 149.25 67.25 147 67.25 138 67.25 129 70.625 122.25 76.475 113.7 84.125 108.975 94.925 109.2 106.4L109.2 162.875ZM120.45 126.2 122.025 107.75 171.75 107.75 173.325 126.2C170.625 140.825 156.675 150.5 141.825 147.8 131.025 145.775 122.475 137.225 120.45 126.2ZM129.45 163.775C131.925 161.75 133.5 158.375 133.5 155L133.5 154.55C142.05 158.15 151.95 158.15 160.5 154.55L160.5 155C160.5 158.375 162.075 161.525 164.55 163.775 158.925 165.575 152.85 166.25 147 166.25 141.15 166.25 135.075 165.575 129.45 163.775Z" fill="#FFB900" fill-rule="nonzero" fill-opacity="1"/><path d="M195.6 193.925C195.6 190.775 193.125 188.3 189.975 188.3L189.975 188.3 104.25 188.3C101.1 188.3 98.625 190.775 98.625 193.925L98.625 249.95 81.525 249.95 81.525 252.875C81.525 256.025 84 258.5 87.15 258.5L207.075 258.5C210.225 258.5 212.7 256.025 212.7 252.875L212.7 249.95 195.6 249.95 195.6 193.925ZM135.3 231.05 132.15 234.2 119.55 221.6 132.15 209 135.3 212.15 125.85 221.6 135.3 231.05ZM143.85 235.775 139.8 233.975 150.375 208.55 154.425 210.35 143.85 235.775ZM161.85 234.425 158.7 231.275 168.15 221.825 158.7 212.375 161.85 209.225 174.45 221.825 161.85 234.425Z" fill="#FFB900" fill-rule="nonzero" fill-opacity="1"/></g></g></g></g></svg>