<svg width="218" height="218" xmlns="http://www.w3.org/2000/svg" xmlns:xlink="http://www.w3.org/1999/xlink" xml:space="preserve" overflow="hidden"><defs><clipPath id="clip0"><rect x="522" y="46" width="218" height="218"/></clipPath><clipPath id="clip1"><rect x="523" y="47" width="216" height="216"/></clipPath><clipPath id="clip2"><rect x="523" y="47" width="216" height="216"/></clipPath><clipPath id="clip3"><rect x="523" y="47" width="216" height="216"/></clipPath></defs><g clip-path="url(#clip0)" transform="translate(-522 -46)"><g clip-path="url(#clip1)"><g clip-path="url(#clip2)"><g clip-path="url(#clip3)"><path d="M689.275 51.5 689.275 51.5C690.85 57.35 695.125 62.3 700.75 65 695.125 67.7 691.075 72.65 689.275 78.5 687.7 72.65 683.425 67.7 677.8 65 683.425 62.3 687.7 57.35 689.275 51.5Z" fill="#FFB900" fill-rule="nonzero" fill-opacity="1"/><path d="M545.275 101 545.275 101C546.85 106.85 551.125 111.8 556.75 114.5 551.125 117.2 547.075 122.15 545.275 128 543.7 122.15 539.425 117.2 533.8 114.5 539.425 111.8 543.7 106.85 545.275 101Z" fill="#FFB900" fill-rule="nonzero" fill-opacity="1"/><path d="M567.55 56 567.55 56C568.9 60.95 572.5 65 577 67.25 572.275 69.5 568.9 73.55 567.55 78.5 566.2 73.55 562.6 69.5 558.1 67.25 562.6 65 566.2 60.95 567.55 56Z" fill="#FFB900" fill-rule="nonzero" fill-opacity="1"/><path d="M716.05 92 716.05 92C717.4 96.95 721 101 725.5 103.25 720.775 105.5 717.4 109.55 716.05 114.5 714.7 109.55 711.1 105.5 706.6 103.25 711.1 101 714.7 96.95 716.05 92Z" fill="#FFB900" fill-rule="nonzero" fill-opacity="1"/><path d="M631 135.875C629.2 135.875 627.625 134.3 627.625 132.5L627.625 110C627.625 108.2 629.2 106.625 631 106.625 632.8 106.625 634.375 108.2 634.375 110L634.375 132.5C634.375 134.3 632.8 135.875 631 135.875Z" fill="#FFB900" fill-rule="nonzero" fill-opacity="1"/><path d="M631 99.875C629.2 99.875 627.625 98.3 627.625 96.5L627.625 78.5C627.625 76.7 629.2 75.125 631 75.125 632.8 75.125 634.375 76.7 634.375 78.5L634.375 96.5C634.375 98.3 632.8 99.875 631 99.875Z" fill="#FFB900" fill-rule="nonzero" fill-opacity="1"/><path d="M631 68.375C629.2 68.375 627.625 66.8 627.625 65L627.625 56C627.625 54.2 629.2 52.625 631 52.625 632.8 52.625 634.375 54.2 634.375 56L634.375 65C634.375 66.8 632.8 68.375 631 68.375Z" fill="#FFB900" fill-rule="nonzero" fill-opacity="1"/><path d="M655.75 120.125C655.525 120.125 655.3 120.125 655.075 120.125 653.275 119.675 652.15 117.875 652.6 116.075L656.425 98.525C656.875 96.725 658.675 95.6 660.475 96.05 662.275 96.5 663.4 98.3 662.95 100.1L659.125 117.65C658.675 119 657.325 120.125 655.75 120.125Z" fill="#FFB900" fill-rule="nonzero" fill-opacity="1"/><path d="M662.5 89.3C662.275 89.3 662.05 89.3 661.825 89.3 660.025 88.85 658.9 87.05 659.35 85.25L659.35 85.25 662.275 71.975C662.725 70.175 664.3 69.05 666.325 69.275 668.125 69.725 669.25 71.3 669.025 73.325 669.025 73.325 669.025 73.325 669.025 73.55L666.1 86.825C665.425 88.175 664.075 89.3 662.5 89.3Z" fill="#FFB900" fill-rule="nonzero" fill-opacity="1"/><path d="M678.25 115.625C676.45 115.625 674.875 114.05 674.875 112.25 674.875 111.575 675.1 110.9 675.55 110.225L690.85 87.95C691.975 86.375 694 86.15 695.575 87.275 696.925 88.4 697.375 90.2 696.475 91.775L681.175 114.05C680.5 115.175 679.375 115.625 678.25 115.625Z" fill="#FFB900" fill-rule="nonzero" fill-opacity="1"/><path d="M606.25 120.125C604.675 120.125 603.325 119 602.875 117.425L598.15 95.375C597.7 93.575 599.05 91.775 600.85 91.325 602.65 90.875 604.45 92 604.675 93.8L609.4 115.85C609.85 117.65 608.725 119.45 606.925 119.9 606.7 120.125 606.475 120.125 606.25 120.125Z" fill="#FFB900" fill-rule="nonzero" fill-opacity="1"/><path d="M598.6 85.025C597.025 85.025 595.675 83.9 595.225 82.325L593.425 73.55C592.975 71.75 594.1 69.95 595.9 69.5 597.7 69.05 599.5 70.175 599.95 71.975 599.95 71.975 599.95 71.975 599.95 72.2L601.75 80.975C602.2 82.775 601.075 84.575 599.275 85.025 599.05 85.025 598.825 85.025 598.6 85.025Z" fill="#FFB900" fill-rule="nonzero" fill-opacity="1"/><path d="M583.75 115.625C582.625 115.625 581.5 115.175 581.05 114.275L565.75 92C564.85 90.425 565.3 88.4 566.875 87.275 568.45 86.375 570.25 86.6 571.375 88.175L586.675 110.45C587.8 112.025 587.35 114.05 585.775 115.175 585.1 115.4 584.425 115.625 583.75 115.625Z" fill="#FFB900" fill-rule="nonzero" fill-opacity="1"/><path d="M729.55 231.275 722.8 158.375C722.575 156.125 720.55 154.325 718.3 154.325 717.4 154.325 716.05 154.325 714.925 154.325L713.8 141.275 709.75 141.05C706.375 140.825 703 141.05 699.85 141.275L698.725 129.125 695.35 128.45C671.725 125.525 648.1 133.4 631 150.05 613.9 133.4 590.275 125.525 566.65 128.45L563.275 129.125 562.15 141.275C558.775 141.05 555.625 140.825 552.25 141.05L548.425 141.275 547.3 154.325C545.95 154.325 544.825 154.325 543.925 154.325 541.675 154.325 539.65 156.125 539.425 158.375L532.675 231.275C532.225 233.75 534.025 236 536.5 236.225 536.725 236.225 536.95 236.225 537.175 236.225 550.9 235.775 589.375 236.675 620.65 257.15 622.225 258.05 623.8 258.725 625.6 258.725L636.85 258.725C638.65 258.725 640.225 258.275 641.575 257.375 674.425 236.9 711.775 236 725.05 236.45 727.525 236.45 729.55 234.65 729.775 232.175 729.55 231.5 729.55 231.5 729.55 231.275ZM635.5 158.15C649.9 143.3 669.925 135.65 690.4 136.775L696.475 206.525C685.9 208.55 658.45 215.3 635.5 235.1L635.5 158.15ZM571.6 137C592.075 135.875 612.1 143.525 626.5 158.375L626.5 235.325C603.55 215.525 576.1 208.775 565.525 206.75L571.6 137ZM550 220.25 556.75 149.825C558.1 149.825 559.675 150.05 561.475 150.05L555.85 214.4 560.125 214.85C560.575 214.85 598.6 219.8 625.15 246.125 595.675 223.625 562.825 220.7 550 220.25ZM636.85 246.575C663.85 220.025 701.65 214.85 701.875 214.85L706.15 214.4 700.525 150.05C702.325 149.825 703.9 149.825 705.25 149.825L712 220.25C699.175 220.7 666.325 223.85 636.85 246.575Z" fill="#FFB900" fill-rule="nonzero" fill-opacity="1"/></g></g></g></g></svg>