<svg width="217" height="217" xmlns="http://www.w3.org/2000/svg" xmlns:xlink="http://www.w3.org/1999/xlink" xml:space="preserve" overflow="hidden"><defs><clipPath id="clip0"><rect x="517" y="288" width="217" height="217"/></clipPath><clipPath id="clip1"><rect x="518" y="289" width="216" height="216"/></clipPath><clipPath id="clip2"><rect x="518" y="289" width="216" height="216"/></clipPath><clipPath id="clip3"><rect x="518" y="289" width="216" height="216"/></clipPath></defs><g clip-path="url(#clip0)" transform="translate(-517 -288)"><g clip-path="url(#clip1)"><g clip-path="url(#clip2)"><g clip-path="url(#clip3)"><path d="M684.275 293.5 684.275 293.5C685.85 299.35 690.125 304.3 695.75 307 690.125 309.7 686.075 314.65 684.275 320.5 682.7 314.65 678.425 309.7 672.8 307 678.425 304.3 682.7 299.35 684.275 293.5Z" fill="#EF3400" fill-rule="nonzero" fill-opacity="1"/><path d="M540.275 343 540.275 343C541.85 348.85 546.125 353.8 551.75 356.5 546.125 359.2 542.075 364.15 540.275 370 538.7 364.15 534.425 359.2 528.8 356.5 534.425 353.8 538.7 348.85 540.275 343Z" fill="#EF3400" fill-rule="nonzero" fill-opacity="1"/><path d="M562.55 298 562.55 298C563.9 302.95 567.5 307 572 309.25 567.275 311.5 563.9 315.55 562.55 320.5 561.2 315.55 557.6 311.5 553.1 309.25 557.6 307 561.2 302.95 562.55 298Z" fill="#EF3400" fill-rule="nonzero" fill-opacity="1"/><path d="M711.05 334 711.05 334C712.4 338.95 716 343 720.5 345.25 715.775 347.5 712.4 351.55 711.05 356.5 709.7 351.55 706.1 347.5 701.6 345.25 706.1 343 709.7 338.95 711.05 334Z" fill="#EF3400" fill-rule="nonzero" fill-opacity="1"/><path d="M626 377.875C624.2 377.875 622.625 376.3 622.625 374.5L622.625 352C622.625 350.2 624.2 348.625 626 348.625 627.8 348.625 629.375 350.2 629.375 352L629.375 374.5C629.375 376.3 627.8 377.875 626 377.875Z" fill="#EF3400" fill-rule="nonzero" fill-opacity="1"/><path d="M626 341.875C624.2 341.875 622.625 340.3 622.625 338.5L622.625 320.5C622.625 318.7 624.2 317.125 626 317.125 627.8 317.125 629.375 318.7 629.375 320.5L629.375 338.5C629.375 340.3 627.8 341.875 626 341.875Z" fill="#EF3400" fill-rule="nonzero" fill-opacity="1"/><path d="M626 310.375C624.2 310.375 622.625 308.8 622.625 307L622.625 298C622.625 296.2 624.2 294.625 626 294.625 627.8 294.625 629.375 296.2 629.375 298L629.375 307C629.375 308.8 627.8 310.375 626 310.375Z" fill="#EF3400" fill-rule="nonzero" fill-opacity="1"/><path d="M650.75 362.125C650.525 362.125 650.3 362.125 650.075 362.125 648.275 361.675 647.15 359.875 647.6 358.075L651.425 340.525C651.875 338.725 653.675 337.6 655.475 338.05 657.275 338.5 658.4 340.3 657.95 342.1L654.125 359.65C653.675 361 652.325 362.125 650.75 362.125Z" fill="#EF3400" fill-rule="nonzero" fill-opacity="1"/><path d="M657.5 331.3C657.275 331.3 657.05 331.3 656.825 331.3 655.025 330.85 653.9 329.05 654.35 327.25L654.35 327.25 657.275 313.975C657.725 312.175 659.3 311.05 661.325 311.275 663.125 311.725 664.25 313.3 664.025 315.325 664.025 315.325 664.025 315.325 664.025 315.55L661.1 328.825C660.425 330.175 659.075 331.3 657.5 331.3Z" fill="#EF3400" fill-rule="nonzero" fill-opacity="1"/><path d="M673.25 357.625C671.45 357.625 669.875 356.05 669.875 354.25 669.875 353.575 670.1 352.9 670.55 352.225L685.85 329.95C686.975 328.375 689 328.15 690.575 329.275 691.925 330.4 692.375 332.2 691.475 333.775L676.175 356.05C675.5 357.175 674.375 357.625 673.25 357.625Z" fill="#EF3400" fill-rule="nonzero" fill-opacity="1"/><path d="M601.25 362.125C599.675 362.125 598.325 361 597.875 359.425L593.15 337.375C592.7 335.575 594.05 333.775 595.85 333.325 597.65 332.875 599.45 334 599.675 335.8L604.4 357.85C604.85 359.65 603.725 361.45 601.925 361.9 601.7 362.125 601.475 362.125 601.25 362.125Z" fill="#EF3400" fill-rule="nonzero" fill-opacity="1"/><path d="M593.6 327.025C592.025 327.025 590.675 325.9 590.225 324.325L588.425 315.55C587.975 313.75 589.1 311.95 590.9 311.5 592.7 311.05 594.5 312.175 594.95 313.975 594.95 313.975 594.95 313.975 594.95 314.2L596.75 322.975C597.2 324.775 596.075 326.575 594.275 327.025 594.05 327.025 593.825 327.025 593.6 327.025Z" fill="#EF3400" fill-rule="nonzero" fill-opacity="1"/><path d="M578.75 357.625C577.625 357.625 576.5 357.175 576.05 356.275L560.75 334C559.85 332.425 560.3 330.4 561.875 329.275 563.45 328.375 565.25 328.6 566.375 330.175L581.675 352.45C582.8 354.025 582.35 356.05 580.775 357.175 580.1 357.4 579.425 357.625 578.75 357.625Z" fill="#EF3400" fill-rule="nonzero" fill-opacity="1"/><path d="M724.55 473.275 717.8 400.375C717.575 398.125 715.55 396.325 713.3 396.325 712.4 396.325 711.05 396.325 709.925 396.325L708.8 383.275 704.75 383.05C701.375 382.825 698 383.05 694.85 383.275L693.725 371.125 690.35 370.45C666.725 367.525 643.1 375.4 626 392.05 608.9 375.4 585.275 367.525 561.65 370.45L558.275 371.125 557.15 383.275C553.775 383.05 550.625 382.825 547.25 383.05L543.425 383.275 542.3 396.325C540.95 396.325 539.825 396.325 538.925 396.325 536.675 396.325 534.65 398.125 534.425 400.375L527.675 473.275C527.225 475.75 529.025 478 531.5 478.225 531.725 478.225 531.95 478.225 532.175 478.225 545.9 477.775 584.375 478.675 615.65 499.15 617.225 500.05 618.8 500.725 620.6 500.725L631.85 500.725C633.65 500.725 635.225 500.275 636.575 499.375 669.425 478.9 706.775 478 720.05 478.45 722.525 478.45 724.55 476.65 724.775 474.175 724.55 473.5 724.55 473.5 724.55 473.275ZM630.5 400.15C644.9 385.3 664.925 377.65 685.4 378.775L691.475 448.525C680.9 450.55 653.45 457.3 630.5 477.1L630.5 400.15ZM566.6 379C587.075 377.875 607.1 385.525 621.5 400.375L621.5 477.325C598.55 457.525 571.1 450.775 560.525 448.75L566.6 379ZM545 462.25 551.75 391.825C553.1 391.825 554.675 392.05 556.475 392.05L550.85 456.4 555.125 456.85C555.575 456.85 593.6 461.8 620.15 488.125 590.675 465.625 557.825 462.7 545 462.25ZM631.85 488.575C658.85 462.025 696.65 456.85 696.875 456.85L701.15 456.4 695.525 392.05C697.325 391.825 698.9 391.825 700.25 391.825L707 462.25C694.175 462.7 661.325 465.85 631.85 488.575Z" fill="#EF3400" fill-rule="nonzero" fill-opacity="1"/></g></g></g></g></svg>