<svg width="350" height="351" xmlns="http://www.w3.org/2000/svg" xmlns:xlink="http://www.w3.org/1999/xlink" xml:space="preserve" overflow="hidden"><defs><clipPath id="clip0"><rect x="944" y="46" width="350" height="351"/></clipPath><clipPath id="clip1"><rect x="944" y="47" width="350" height="350"/></clipPath><clipPath id="clip2"><rect x="944" y="47" width="350" height="351"/></clipPath><clipPath id="clip3"><rect x="944" y="47" width="350" height="351"/></clipPath></defs><g clip-path="url(#clip0)" transform="translate(-944 -46)"><g clip-path="url(#clip1)"><g clip-path="url(#clip2)"><g clip-path="url(#clip3)"><path d="M1164.14 98.5885C1142.42 98.5346 1124.36 114.32 1120.89 135.047 1120.53 137.163 1120.33 138.739 1120.29 139.054 1120.29 139.063 1120.27 139.063 1120.27 139.054 1120.23 138.739 1120.03 137.163 1119.68 135.047 1116.2 114.32 1098.15 98.5346 1076.42 98.5885 1052.31 98.6483 1032.67 118.644 1032.78 142.756 1032.9 170.38 1045.29 193.843 1067.82 213.251 1088.93 231.662 1120.28 252.08 1120.28 252.08 1120.28 252.08 1151.63 231.663 1172.74 213.251 1195.27 193.843 1207.66 170.38 1207.78 142.756 1207.89 118.644 1188.25 98.6483 1164.14 98.5885Z" fill="#EF3400" fill-rule="nonzero" fill-opacity="1"/><path d="M1049.25 171.217C1048.37 171.217 1047.54 170.682 1047.21 169.81 1043.14 159.163 1041.55 148.159 1042.73 138.827 1044.21 127.196 1049.95 118.16 1059.35 112.695 1064.56 109.668 1070.5 108.068 1076.53 108.068 1076.53 108.068 1076.53 108.068 1076.53 108.068 1077.74 108.068 1078.72 109.048 1078.72 110.256 1078.72 111.464 1077.74 112.443 1076.53 112.443L1076.53 112.443C1076.53 112.443 1076.53 112.443 1076.53 112.443 1071.27 112.443 1066.09 113.838 1061.55 116.477 1049.66 123.39 1040.73 140.62 1051.29 168.248 1051.72 169.377 1051.16 170.641 1050.03 171.073 1049.77 171.171 1049.51 171.217 1049.25 171.217Z" fill="#FFFFFF" fill-rule="nonzero" fill-opacity="1"/><path d="M1138.11 125.645C1137.66 125.645 1137.21 125.508 1136.82 125.224 1135.84 124.51 1135.63 123.143 1136.34 122.167 1142.8 113.34 1153.15 108.069 1164.03 108.069 1164.03 108.069 1164.03 108.069 1164.04 108.069 1165.24 108.069 1166.22 109.049 1166.22 110.257 1166.22 111.464 1165.24 112.444 1164.04 112.444L1164.04 112.444C1164.03 112.444 1164.03 112.444 1164.03 112.444 1154.54 112.444 1145.51 117.044 1139.88 124.749 1139.45 125.334 1138.78 125.645 1138.11 125.645Z" fill="#FFFFFF" fill-rule="nonzero" fill-opacity="1"/><path d="M1038.62 223.315C1031.36 230.678 1030.37 241.906 1035.66 250.321 1036.42 251.536 1037.18 252.564 1037.34 252.779 1037.35 252.785 1037.34 252.794 1037.33 252.789 1037.12 252.629 1036.12 251.886 1034.93 251.13 1026.41 245.752 1015 246.814 1007.62 254.315 999.165 262.925 999.435 276.954 1008.04 285.417 1017.84 295.056 1030.48 298.937 1045.26 297.836 1059.25 296.883 1077.57 293.013 1077.57 293.013 1077.57 293.013 1081.44 274.691 1082.39 260.707 1083.49 245.939 1079.62 233.304 1069.99 223.506 1061.4 214.755 1047.24 214.585 1038.62 223.315Z" fill="#D1D1D1" fill-rule="nonzero" fill-opacity="1"/><path d="M1023.09 290.227C1022.9 290.227 1022.69 290.186 1022.5 290.1 1017.24 287.751 1012.74 284.384 1009.82 280.619 1006.16 275.892 1004.98 270.556 1006.4 265.187 1007.19 262.214 1008.75 259.49 1010.93 257.311 1011.5 256.743 1012.42 256.742 1012.99 257.311 1013.56 257.881 1013.56 258.804 1012.99 259.374 1011.18 261.189 1009.87 263.457 1009.22 265.934 1006.59 275.85 1014.97 283.543 1023.69 287.438 1024.43 287.766 1024.76 288.628 1024.43 289.364 1024.19 289.905 1023.65 290.227 1023.09 290.227Z" fill="#FFFFFF" fill-rule="nonzero" fill-opacity="1"/><path d="M1038.4 242.697C1037.69 242.697 1037.07 242.183 1036.96 241.463 1036.1 235.945 1037.94 230.304 1041.87 226.374 1042.44 225.806 1043.36 225.805 1043.93 226.374 1044.5 226.944 1044.5 227.867 1043.93 228.437 1040.65 231.711 1039.13 236.413 1039.84 241.014 1039.96 241.81 1039.42 242.556 1038.62 242.679 1038.55 242.692 1038.47 242.697 1038.4 242.697Z" fill="#FFFFFF" fill-rule="nonzero" fill-opacity="1"/><path d="M1233.64 244.833C1228.96 239.469 1220.84 239.208 1215.82 244.046 1215.73 244.136 1215.73 244.136 1215.82 244.043 1220.65 239.02 1220.39 230.903 1215.02 226.223 1209.9 221.753 1202.13 222.573 1197.52 227.573 1192.53 232.995 1190.52 239.886 1191.12 247.892 1191.65 255.75 1193.83 266.045 1193.83 266.045 1193.83 266.045 1204.12 268.216 1211.98 268.748 1219.99 269.342 1226.88 267.333 1232.3 262.332 1237.3 257.722 1238.12 249.956 1233.64 244.833Z" fill="#EF3400" fill-rule="nonzero" fill-opacity="1"/><path d="M1151.48 274.725C1149.11 272.396 1145.33 272.369 1142.93 274.645 1142.86 274.707 1142.87 274.708 1142.93 274.642 1145.2 272.243 1145.18 268.461 1142.85 266.095 1140.24 263.449 1135.94 263.909 1133.5 266.71 1131.18 269.377 1130.26 272.725 1130.54 276.596 1130.81 280.525 1131.9 285.673 1131.9 285.673 1131.9 285.673 1137.05 286.761 1140.98 287.029 1144.85 287.317 1148.2 286.389 1150.86 284.069 1153.66 281.631 1154.12 277.33 1151.48 274.725Z" fill="#737373" fill-rule="nonzero" fill-opacity="1"/><path d="M1119.62 316.81C1115.84 319.892 1115.58 325.437 1118.84 328.853 1118.92 328.927 1118.92 328.927 1118.84 328.856 1115.42 325.59 1109.88 325.847 1106.8 329.626 1103.99 333.069 1104.65 338.12 1107.93 341.118 1111.53 344.417 1116.11 345.74 1121.42 345.344 1126.66 344.987 1133.53 343.537 1133.53 343.537 1133.53 343.537 1134.98 336.673 1135.33 331.434 1135.73 326.121 1134.41 321.545 1131.11 317.939 1128.11 314.662 1123.06 314.003 1119.62 316.81Z" fill="#D1D1D1" fill-rule="nonzero" fill-opacity="1"/><path d="M1204.3 292.241C1201.22 288.462 1195.68 288.205 1192.26 291.471 1192.19 291.542 1192.19 291.542 1192.26 291.468 1195.52 288.051 1195.27 282.507 1191.49 279.425 1188.05 276.618 1182.99 277.277 1180 280.554 1176.7 284.16 1175.37 288.736 1175.77 294.049 1176.13 299.288 1177.58 306.152 1177.58 306.152 1177.58 306.152 1184.44 307.602 1189.68 307.959 1194.99 308.354 1199.57 307.031 1203.18 303.732 1206.45 300.735 1207.11 295.684 1204.3 292.241Z" fill="#505050" fill-rule="nonzero" fill-opacity="1"/></g></g></g></g></svg>