<svg width="217" height="217" xmlns="http://www.w3.org/2000/svg" xmlns:xlink="http://www.w3.org/1999/xlink" xml:space="preserve" overflow="hidden"><defs><clipPath id="clip0"><rect x="33" y="288" width="217" height="217"/></clipPath><clipPath id="clip1"><rect x="34" y="289" width="216" height="216"/></clipPath><clipPath id="clip2"><rect x="34" y="289" width="216" height="216"/></clipPath><clipPath id="clip3"><rect x="34" y="289" width="216" height="216"/></clipPath></defs><g clip-path="url(#clip0)" transform="translate(-33 -288)"><g clip-path="url(#clip1)"><g clip-path="url(#clip2)"><g clip-path="url(#clip3)"><path d="M104.2 404.875C95.65 408.25 87.775 412.75 80.575 418.375 75.625 422.425 72.475 428.5 72.25 435.025L68.425 468.325C67.75 473.275 70 478.225 74.05 480.925 78.1 483.625 82.375 485.65 86.875 487.45L88.9 487.45 88.9 478.675C85.525 477.325 82.15 475.525 79 473.5 77.65 472.6 76.975 471.025 77.2 469.45L81.25 435.7 81.25 435.25C81.475 431.2 83.275 427.6 86.425 425.125 92.5 419.95 101.275 415.225 113.425 410.725 120.175 414.775 130.525 417.25 142 417.25 153.475 417.25 163.825 414.775 170.575 410.725 182.95 415.225 191.5 419.95 197.575 425.125 200.725 427.6 202.525 431.425 202.75 435.25L206.8 469.225C207.025 470.8 206.35 472.375 205 473.275 201.85 475.3 198.7 477.1 195.1 478.45L195.1 487.225 197.125 487.225C201.625 485.65 205.9 483.4 209.95 480.7 214 477.775 216.25 473.05 215.575 468.1L211.75 435.025C211.525 428.5 208.375 422.425 203.425 418.375 196.225 412.75 188.35 408.025 179.8 404.875 179.8 393.4 180.25 361.9 180.25 349.075 180.25 345.475 179.8 341.875 178.9 338.275 175.975 327.475 168.55 318.475 158.65 313.3 157.75 312.85 156.4 312.85 155.725 313.525L153.7 315.1 151.45 311.95C150.775 310.825 149.65 310.15 148.525 309.925 146.275 309.475 144.25 309.25 142 309.25 133 309.25 124 312.625 117.25 318.475 108.7 326.125 103.975 336.925 104.2 348.4L104.2 404.875ZM115.45 368.2 117.025 349.75 166.75 349.75 168.325 368.2C165.625 382.825 151.675 392.5 136.825 389.8 126.025 387.775 117.475 379.225 115.45 368.2ZM124.45 405.775C126.925 403.75 128.5 400.375 128.5 397L128.5 396.55C137.05 400.15 146.95 400.15 155.5 396.55L155.5 397C155.5 400.375 157.075 403.525 159.55 405.775 153.925 407.575 147.85 408.25 142 408.25 136.15 408.25 130.075 407.575 124.45 405.775Z" fill="#EF3400" fill-rule="nonzero" fill-opacity="1"/><path d="M190.6 435.925C190.6 432.775 188.125 430.3 184.975 430.3L184.975 430.3 99.25 430.3C96.1 430.3 93.625 432.775 93.625 435.925L93.625 491.95 76.525 491.95 76.525 494.875C76.525 498.025 79 500.5 82.15 500.5L202.075 500.5C205.225 500.5 207.7 498.025 207.7 494.875L207.7 491.95 190.6 491.95 190.6 435.925ZM130.3 473.05 127.15 476.2 114.55 463.6 127.15 451 130.3 454.15 120.85 463.6 130.3 473.05ZM138.85 477.775 134.8 475.975 145.375 450.55 149.425 452.35 138.85 477.775ZM156.85 476.425 153.7 473.275 163.15 463.825 153.7 454.375 156.85 451.225 169.45 463.825 156.85 476.425Z" fill="#EF3400" fill-rule="nonzero" fill-opacity="1"/></g></g></g></g></svg>