<svg width="264" height="264" xmlns="http://www.w3.org/2000/svg" xmlns:xlink="http://www.w3.org/1999/xlink" xml:space="preserve" overflow="hidden"><defs><clipPath id="clip0"><rect x="788" y="40" width="264" height="264"/></clipPath><clipPath id="clip1"><rect x="789" y="41" width="263" height="263"/></clipPath><clipPath id="clip2"><rect x="789" y="41" width="263" height="263"/></clipPath><clipPath id="clip3"><rect x="789" y="41" width="263" height="263"/></clipPath></defs><g clip-path="url(#clip0)" transform="translate(-788 -40)"><g clip-path="url(#clip1)"><g clip-path="url(#clip2)"><g clip-path="url(#clip3)"><path d="M954.422 79.7651C938.095 79.7246 924.53 91.5859 921.917 107.161 921.65 108.751 921.498 109.936 921.468 110.172 921.467 110.179 921.458 110.179 921.457 110.172 921.427 109.936 921.274 108.751 921.007 107.161 918.394 91.5859 904.83 79.7246 888.503 79.7651 870.384 79.81 855.631 94.835 855.712 112.954 855.805 133.711 865.111 151.342 882.044 165.926 897.902 179.76 921.462 195.103 921.462 195.103 921.462 195.103 945.023 179.761 960.88 165.926 977.813 151.342 987.119 133.711 987.212 112.954 987.293 94.835 972.54 79.81 954.422 79.7651Z" fill="#FFB900" fill-rule="nonzero" fill-opacity="1"/><path d="M868.089 134.34C867.427 134.34 866.803 133.938 866.553 133.283 863.493 125.282 862.298 117.014 863.188 110.001 864.297 101.262 868.617 94.4717 875.678 90.3651 879.59 88.0907 884.054 86.8886 888.589 86.8886 888.589 86.8886 888.59 86.8886 888.59 86.8886 889.498 86.8886 890.234 87.6244 890.234 88.5323 890.234 89.4402 889.498 90.1761 888.59 90.1761L888.59 90.1761C888.59 90.1761 888.589 90.1761 888.589 90.1761 884.633 90.1761 880.741 91.2242 877.33 93.2071 868.399 98.4014 861.684 111.349 869.623 132.109 869.947 132.957 869.522 133.907 868.675 134.232 868.482 134.305 868.283 134.34 868.089 134.34Z" fill="#FFFFFF" fill-rule="nonzero" fill-opacity="1"/><path d="M934.859 100.096C934.522 100.096 934.183 99.9931 933.89 99.7794 933.157 99.2435 932.997 98.2157 933.533 97.4825 938.382 90.8495 946.16 86.8891 954.338 86.8891 954.339 86.8891 954.34 86.8891 954.341 86.8891 955.249 86.8891 955.985 87.6255 955.985 88.5329 955.985 89.4402 955.248 90.1766 954.341 90.1766L954.341 90.1766C954.34 90.1766 954.338 90.1766 954.338 90.1766 947.204 90.1766 940.42 93.6329 936.187 99.4227 935.865 99.8627 935.366 100.096 934.859 100.096Z" fill="#FFFFFF" fill-rule="nonzero" fill-opacity="1"/><path d="M860.103 173.488C854.646 179.021 853.902 187.458 857.873 193.781 858.446 194.694 859.02 195.466 859.142 195.628 859.146 195.633 859.139 195.64 859.134 195.636 858.975 195.516 858.224 194.957 857.324 194.389 850.926 190.348 842.348 191.146 836.81 196.783 830.453 203.252 830.655 213.794 837.122 220.153 844.487 227.396 853.986 230.313 865.091 229.486 875.599 228.769 889.366 225.861 889.366 225.861 889.366 225.861 892.275 212.094 892.991 201.586 893.818 190.488 890.905 180.994 883.672 173.631 877.216 167.056 866.575 166.928 860.103 173.488Z" fill="#D1D1D1" fill-rule="nonzero" fill-opacity="1"/><path d="M848.434 223.767C848.285 223.767 848.133 223.737 847.988 223.672 844.037 221.907 840.654 219.377 838.463 216.548 835.711 212.996 834.82 208.986 835.887 204.952 836.479 202.718 837.657 200.671 839.295 199.034 839.723 198.607 840.417 198.606 840.844 199.034 841.272 199.462 841.272 200.156 840.844 200.584 839.48 201.948 838.499 203.652 838.006 205.513 836.035 212.964 842.332 218.745 848.882 221.672 849.435 221.919 849.682 222.566 849.436 223.119 849.253 223.526 848.853 223.767 848.434 223.767Z" fill="#FFFFFF" fill-rule="nonzero" fill-opacity="1"/><path d="M859.934 188.053C859.403 188.053 858.937 187.666 858.852 187.125 858.208 182.979 859.587 178.74 862.54 175.787 862.968 175.36 863.662 175.359 864.09 175.787 864.518 176.215 864.518 176.909 864.09 177.337 861.629 179.797 860.481 183.331 861.018 186.788 861.111 187.386 860.701 187.946 860.103 188.039 860.047 188.049 859.99 188.053 859.934 188.053Z" fill="#FFFFFF" fill-rule="nonzero" fill-opacity="1"/><path d="M1006.65 189.657C1003.13 185.627 997.028 185.431 993.254 189.066 993.184 189.134 993.184 189.134 993.252 189.064 996.886 185.289 996.687 179.19 992.655 175.673 988.804 172.314 982.969 172.931 979.506 176.688 975.75 180.762 974.242 185.94 974.691 191.956 975.093 197.861 976.728 205.597 976.728 205.597 976.728 205.597 984.465 207.228 990.37 207.628 996.387 208.074 1001.56 206.565 1005.64 202.807 1009.39 199.342 1010.01 193.507 1006.65 189.657Z" fill="#FFB900" fill-rule="nonzero" fill-opacity="1"/><path d="M944.905 212.119C943.127 210.369 940.284 210.349 938.482 212.059 938.433 212.106 938.433 212.106 938.48 212.057 940.19 210.254 940.169 207.412 938.419 205.634 936.462 203.646 933.23 203.992 931.399 206.096 929.656 208.1 928.958 210.616 929.175 213.525 929.376 216.477 930.194 220.346 930.194 220.346 930.194 220.346 934.062 221.163 937.015 221.364 939.923 221.581 942.439 220.884 944.443 219.14 946.548 217.308 946.893 214.076 944.905 212.119Z" fill="#737373" fill-rule="nonzero" fill-opacity="1"/><path d="M920.962 243.743C918.123 246.059 917.929 250.225 920.383 252.792 920.437 252.848 920.437 252.848 920.381 252.794 917.814 250.34 913.648 250.534 911.332 253.374 909.223 255.96 909.718 259.756 912.18 262.009 914.89 264.488 918.328 265.482 922.321 265.184 926.258 264.916 931.415 263.826 931.415 263.826 931.415 263.826 932.505 258.669 932.773 254.732 933.07 250.739 932.076 247.301 929.597 244.592 927.345 242.129 923.549 241.633 920.962 243.743Z" fill="#D1D1D1" fill-rule="nonzero" fill-opacity="1"/><path d="M984.6 225.281C982.284 222.442 978.118 222.248 975.551 224.702 975.495 224.756 975.495 224.756 975.549 224.7 978.003 222.132 977.809 217.967 974.969 215.651 972.383 213.542 968.587 214.037 966.334 216.499 963.856 219.209 962.861 222.647 963.159 226.64 963.427 230.576 964.517 235.734 964.517 235.734 964.517 235.734 969.674 236.824 973.611 237.092 977.604 237.389 981.042 236.395 983.752 233.916 986.214 231.663 986.709 227.868 984.6 225.281Z" fill="#505050" fill-rule="nonzero" fill-opacity="1"/></g></g></g></g></svg>