<svg width="264" height="264" xmlns="http://www.w3.org/2000/svg" xmlns:xlink="http://www.w3.org/1999/xlink" xml:space="preserve" overflow="hidden"><defs><clipPath id="clip0"><rect x="813" y="280" width="264" height="264"/></clipPath><clipPath id="clip1"><rect x="814" y="280" width="263" height="263"/></clipPath><clipPath id="clip2"><rect x="814" y="280" width="263" height="263"/></clipPath><clipPath id="clip3"><rect x="814" y="280" width="263" height="263"/></clipPath></defs><g clip-path="url(#clip0)" transform="translate(-813 -280)"><g clip-path="url(#clip1)"><g clip-path="url(#clip2)"><g clip-path="url(#clip3)"><path d="M979.422 318.765C963.095 318.725 949.53 330.586 946.917 346.161 946.65 347.751 946.498 348.936 946.468 349.172 946.467 349.179 946.458 349.179 946.457 349.172 946.427 348.936 946.274 347.751 946.007 346.161 943.394 330.586 929.83 318.725 913.503 318.765 895.384 318.81 880.631 333.835 880.712 351.954 880.805 372.711 890.111 390.342 907.044 404.926 922.902 418.76 946.462 434.103 946.462 434.103 946.462 434.103 970.023 418.761 985.88 404.926 1002.81 390.342 1012.12 372.711 1012.21 351.954 1012.29 333.835 997.54 318.81 979.422 318.765Z" fill="#EF3400" fill-rule="nonzero" fill-opacity="1"/><path d="M893.089 373.34C892.427 373.34 891.803 372.938 891.553 372.283 888.493 364.282 887.298 356.014 888.188 349.001 889.297 340.262 893.617 333.472 900.678 329.365 904.59 327.091 909.054 325.889 913.589 325.889 913.589 325.889 913.59 325.889 913.59 325.889 914.498 325.889 915.234 326.624 915.234 327.532 915.234 328.44 914.498 329.176 913.59 329.176L913.59 329.176C913.59 329.176 913.589 329.176 913.589 329.176 909.633 329.176 905.741 330.224 902.33 332.207 893.399 337.401 886.684 350.349 894.623 371.109 894.947 371.957 894.522 372.908 893.675 373.232 893.482 373.305 893.283 373.34 893.089 373.34Z" fill="#FFFFFF" fill-rule="nonzero" fill-opacity="1"/><path d="M959.859 339.096C959.522 339.096 959.183 338.993 958.89 338.779 958.157 338.244 957.997 337.216 958.533 336.483 963.382 329.849 971.16 325.889 979.338 325.889 979.339 325.889 979.34 325.889 979.341 325.889 980.249 325.889 980.985 326.626 980.985 327.533 980.985 328.44 980.248 329.177 979.341 329.177L979.341 329.177C979.34 329.177 979.338 329.177 979.338 329.177 972.204 329.177 965.42 332.633 961.187 338.423 960.865 338.863 960.366 339.096 959.859 339.096Z" fill="#FFFFFF" fill-rule="nonzero" fill-opacity="1"/><path d="M885.103 412.488C879.646 418.021 878.902 426.458 882.873 432.781 883.446 433.694 884.02 434.466 884.142 434.628 884.146 434.633 884.139 434.64 884.134 434.636 883.975 434.516 883.224 433.957 882.324 433.389 875.926 429.348 867.348 430.146 861.81 435.783 855.453 442.252 855.655 452.794 862.122 459.153 869.487 466.396 878.986 469.313 890.091 468.486 900.599 467.769 914.366 464.861 914.366 464.861 914.366 464.861 917.275 451.094 917.991 440.586 918.818 429.488 915.905 419.994 908.672 412.631 902.216 406.056 891.575 405.928 885.103 412.488Z" fill="#D1D1D1" fill-rule="nonzero" fill-opacity="1"/><path d="M873.434 462.767C873.285 462.767 873.133 462.737 872.988 462.672 869.037 460.907 865.654 458.377 863.463 455.548 860.711 451.996 859.82 447.986 860.887 443.952 861.479 441.718 862.657 439.671 864.295 438.034 864.723 437.607 865.417 437.606 865.844 438.034 866.272 438.462 866.272 439.156 865.844 439.584 864.48 440.948 863.499 442.652 863.006 444.513 861.035 451.964 867.332 457.745 873.882 460.672 874.435 460.919 874.682 461.566 874.436 462.119 874.253 462.526 873.853 462.767 873.434 462.767Z" fill="#FFFFFF" fill-rule="nonzero" fill-opacity="1"/><path d="M884.934 427.053C884.403 427.053 883.937 426.666 883.852 426.125 883.208 421.979 884.587 417.74 887.54 414.787 887.968 414.36 888.662 414.359 889.09 414.787 889.518 415.215 889.518 415.909 889.09 416.337 886.629 418.797 885.481 422.331 886.018 425.788 886.111 426.386 885.701 426.946 885.103 427.039 885.047 427.049 884.99 427.053 884.934 427.053Z" fill="#FFFFFF" fill-rule="nonzero" fill-opacity="1"/><path d="M1031.65 428.657C1028.13 424.627 1022.03 424.431 1018.25 428.066 1018.18 428.134 1018.18 428.134 1018.25 428.064 1021.89 424.289 1021.69 418.19 1017.66 414.673 1013.8 411.314 1007.97 411.931 1004.51 415.688 1000.75 419.762 999.242 424.94 999.691 430.956 1000.09 436.861 1001.73 444.597 1001.73 444.597 1001.73 444.597 1009.46 446.228 1015.37 446.628 1021.39 447.074 1026.56 445.565 1030.64 441.807 1034.39 438.342 1035.01 432.507 1031.65 428.657Z" fill="#EF3400" fill-rule="nonzero" fill-opacity="1"/><path d="M969.905 451.119C968.127 449.369 965.284 449.349 963.482 451.059 963.433 451.106 963.433 451.106 963.48 451.057 965.19 449.254 965.169 446.412 963.419 444.634 961.462 442.646 958.23 442.992 956.399 445.096 954.656 447.1 953.958 449.616 954.175 452.525 954.376 455.477 955.194 459.346 955.194 459.346 955.194 459.346 959.062 460.163 962.015 460.364 964.923 460.581 967.439 459.884 969.443 458.14 971.548 456.308 971.893 453.076 969.905 451.119Z" fill="#737373" fill-rule="nonzero" fill-opacity="1"/><path d="M945.962 482.743C943.123 485.059 942.929 489.225 945.383 491.792 945.437 491.848 945.437 491.848 945.381 491.794 942.814 489.34 938.648 489.534 936.332 492.374 934.223 494.96 934.718 498.756 937.18 501.009 939.89 503.488 943.328 504.482 947.321 504.184 951.258 503.916 956.415 502.826 956.415 502.826 956.415 502.826 957.505 497.669 957.773 493.732 958.07 489.739 957.076 486.301 954.597 483.592 952.345 481.129 948.549 480.633 945.962 482.743Z" fill="#D1D1D1" fill-rule="nonzero" fill-opacity="1"/><path d="M1009.6 464.281C1007.28 461.441 1003.12 461.248 1000.55 463.702 1000.49 463.756 1000.49 463.756 1000.55 463.7 1003 461.132 1002.81 456.967 999.969 454.651 997.383 452.542 993.587 453.037 991.334 455.499 988.856 458.209 987.861 461.647 988.159 465.64 988.427 469.576 989.517 474.734 989.517 474.734 989.517 474.734 994.674 475.824 998.611 476.092 1002.6 476.389 1006.04 475.395 1008.75 472.916 1011.21 470.663 1011.71 466.868 1009.6 464.281Z" fill="#505050" fill-rule="nonzero" fill-opacity="1"/></g></g></g></g></svg>