<svg width="216" height="217" xmlns="http://www.w3.org/2000/svg" xmlns:xlink="http://www.w3.org/1999/xlink" xml:space="preserve" overflow="hidden"><defs><clipPath id="clip0"><rect x="276" y="288" width="216" height="217"/></clipPath><clipPath id="clip1"><rect x="276" y="289" width="216" height="216"/></clipPath><clipPath id="clip2"><rect x="276" y="289" width="216" height="216"/></clipPath><clipPath id="clip3"><rect x="276" y="289" width="216" height="216"/></clipPath></defs><g clip-path="url(#clip0)" transform="translate(-276 -288)"><g clip-path="url(#clip1)"><g clip-path="url(#clip2)"><g clip-path="url(#clip3)"><path d="M384 311.5C395.25 311.5 404.25 320.5 404.25 331.75L363.75 331.75C363.75 320.5 372.75 311.5 384 311.5ZM339 374.5C339 376.975 341.025 379 343.5 379L375 379 375 374.5C375 372.025 377.025 370 379.5 370L388.5 370C390.975 370 393 372.025 393 374.5L393 379 424.5 379C426.975 379 429 376.975 429 374.5L429 331.75 417.75 331.75C417.75 313.075 402.675 298 384 298 365.325 298 350.25 313.075 350.25 331.75L339 331.75 339 374.5Z" fill="#EF3400" fill-rule="nonzero" fill-opacity="1"/><path d="M417.075 444.25 350.925 444.25C349.35 444.25 348 445.6 348 447.175L348 478 420 478 420 447.175C420 445.6 418.65 444.25 417.075 444.25Z" fill="#EF3400" fill-rule="nonzero" fill-opacity="1"/><path d="M451.5 403.75 447 403.75 447 349.75C447 343.225 443.625 337.375 438 334.225L438 374.5C438 381.925 431.925 388 424.5 388L393 388 393 392.5C393 394.975 390.975 397 388.5 397L379.5 397C377.025 397 375 394.975 375 392.5L375 388 343.5 388C336.075 388 330 381.925 330 374.5L330 334.225C324.375 337.375 321 343.45 321 349.75L321 403.75 316.5 403.75C311.55 403.75 307.5 407.8 307.5 412.75L307.5 448.75C307.5 453.7 311.55 457.75 316.5 457.75L321 457.75 321 469C321 473.95 325.05 478 330 478L339 478 339 447.175C339 440.65 344.4 435.25 350.925 435.25L417.3 435.25C423.825 435.25 429.225 440.65 429.225 447.175L429.225 478 438.225 478C443.175 478 447.225 473.95 447.225 469L447.225 457.75 451.725 457.75C456.675 457.75 460.725 453.7 460.725 448.75L460.725 412.75C460.5 407.8 456.45 403.75 451.5 403.75Z" fill="#EF3400" fill-rule="nonzero" fill-opacity="1"/></g></g></g></g></svg>